<svg width="1080" height="1080" viewBox="0 0 1080 1080" fill="none" xmlns="http://www.w3.org/2000/svg">
<g clip-path="url(#clip0_127_137)">
<rect width="1080" height="1080" rx="50" fill="white"/>
<circle cx="540" cy="449" r="338" fill="#554BFF"/>
<path d="M540 985C697.427 985 825 857.151 825 699.5C825 541.849 697.427 414 540 414C446.994 414 364.399 458.644 312.408 527.631C276.373 575.446 255 634.995 255 699.5C255 857.151 382.573 985 540 985Z" fill="#554BFF" stroke="white" stroke-width="30"/>
<path d="M635 924C635 1048.26 534.264 1149 410 1149C285.736 1149 185 1048.26 185 924C185 873.145 201.871 826.232 230.322 788.55C271.392 734.156 336.59 699 410 699C534.264 699 635 799.736 635 924Z" fill="white"/>
<path d="M720 703C720 827.264 619.264 928 495 928C370.736 928 270 827.264 270 703C270 652.145 286.871 605.232 315.322 567.55C356.392 513.156 421.59 478 495 478C619.264 478 720 578.736 720 703Z" fill="#554BFF"/>
</g>
<defs>
<clipPath id="clip0_127_137">
<rect width="1080" height="1080" rx="50" fill="white"/>
</clipPath>
</defs>
</svg>
