<svg width="1080" height="1080" viewBox="0 0 1080 1080" fill="none" xmlns="http://www.w3.org/2000/svg">
<rect width="1080" height="1080" fill="white"/>
<circle cx="540" cy="449" r="338" fill="#554BFF"/>
<path d="M540 980C694.657 980 820 854.398 820 699.5C820 544.602 694.657 419 540 419C448.632 419 367.49 462.851 316.401 530.64C280.997 577.617 260 636.117 260 699.5C260 854.398 385.343 980 540 980Z" fill="#554BFF" stroke="white" stroke-width="20"/>
<path d="M743 733C743 863.891 637.115 970 506.5 970C375.885 970 270 863.891 270 733C270 679.433 287.734 630.017 317.639 590.326C360.808 533.031 429.338 496 506.5 496C637.115 496 743 602.109 743 733Z" fill="white"/>
<path d="M743 699C743 822.16 637.115 922 506.5 922C375.885 922 270 822.16 270 699C270 648.598 287.734 602.101 317.639 564.754C360.808 510.843 429.338 476 506.5 476C637.115 476 743 575.841 743 699Z" fill="#554BFF"/>
</svg>
